<?xml version="1.0" standalone="no"?>
<!DOCTYPE svg PUBLIC "-//W3C//DTD SVG 20010904//EN"
 "http://www.w3.org/TR/2001/REC-SVG-20010904/DTD/svg10.dtd">
<svg version="1.0" xmlns="http://www.w3.org/2000/svg"
 width="473.000000pt" height="473.000000pt" viewBox="0 0 473.000000 473.000000"
 preserveAspectRatio="xMidYMid meet">
<metadata>
Created by potrace 1.14, written by Peter Selinger 2001-2017
</metadata>
<g transform="translate(0.000000,473.000000) scale(0.100000,-0.100000)"
fill="#000000" stroke="none">
<path d="M2125 4664 c-320 -46 -546 -115 -793 -244 -382 -200 -685 -480 -919
-850 -172 -271 -281 -572 -328 -904 -20 -138 -20 -467 0 -605 62 -422 223
-792 495 -1136 281 -355 721 -652 1150 -776 256 -73 411 -92 698 -86 233 4
321 16 519 66 390 100 810 348 1088 643 362 384 576 839 636 1351 17 147 7
483 -20 627 -73 401 -234 747 -499 1076 -290 361 -751 659 -1193 773 -219 57
-275 63 -549 66 -140 2 -268 1 -285 -1z m1726 -601 c13 -16 12 -17 -3 -4 -10
7 -18 15 -18 17 0 8 8 3 21 -13z m-3081 -126 c0 -2 -15 -16 -32 -33 l-33 -29
29 33 c28 30 36 37 36 29z m3305 -97 c10 -11 16 -20 13 -20 -3 0 -13 9 -23 20
-10 11 -16 20 -13 20 3 0 13 -9 23 -20z m-1410 -86 c194 -36 410 -132 568
-250 119 -90 334 -320 315 -339 -3 -3 -305 -132 -671 -288 l-666 -282 -509
-507 c-279 -280 -511 -508 -515 -508 -12 0 -96 165 -132 260 -36 91 -85 281
-85 327 0 18 27 36 155 104 85 46 155 85 155 89 0 3 -70 43 -155 88 -178 96
-167 77 -134 229 62 285 193 519 402 720 192 183 427 305 694 358 133 27 126
31 208 -127 39 -76 74 -140 78 -144 3 -4 11 6 17 22 6 16 38 84 72 151 l60
122 31 -5 c18 -3 68 -12 112 -20z m-2065 -18 c0 -2 -8 -10 -17 -17 -16 -13
-17 -12 -4 4 13 16 21 21 21 13z m620 -450 c0 -2 -8 -10 -17 -17 -16 -13 -17
-12 -4 4 13 16 21 21 21 13z m2395 -221 c75 -133 146 -346 160 -481 l6 -59
-150 -80 c-83 -44 -151 -82 -151 -85 0 -4 68 -42 151 -86 l150 -79 -6 -50
c-10 -84 -53 -242 -91 -333 -170 -411 -508 -705 -940 -817 -53 -14 -120 -28
-149 -31 l-52 -6 -84 156 c-46 86 -86 156 -89 156 -4 0 -43 -70 -89 -155 -68
-128 -86 -155 -104 -155 -46 0 -236 49 -327 84 -182 71 -318 156 -452 284 -70
67 -188 202 -188 214 0 3 299 133 665 289 l665 284 513 507 c281 279 515 507
519 507 4 1 23 -28 43 -64z m-2344 -1682 c13 -16 12 -17 -3 -4 -17 13 -22 21
-14 21 2 0 10 -8 17 -17z m130 -130 c13 -16 12 -17 -3 -4 -17 13 -22 21 -14
21 2 0 10 -8 17 -17z m1909 -37 c0 -2 -8 -10 -17 -17 -16 -13 -17 -12 -4 4 13
16 21 21 21 13z"/>
</g>
</svg>
